<svg width="40" height="41" viewBox="0 0 40 41" fill="none" xmlns="http://www.w3.org/2000/svg">
<path d="M20 0.5C30.758 0.5 39.5 9.44259 39.5 20.5C39.5 31.5574 30.758 40.5 20 40.5C9.24201 40.5 0.5 31.5574 0.5 20.5C0.5 9.44259 9.24201 0.5 20 0.5Z" stroke="#01F7FF"/>
<path d="M16 20.25V16C16 15.5833 16.146 15.2293 16.438 14.938C16.73 14.6467 17.084 14.5007 17.5 14.5C17.916 14.4993 18.2703 14.6453 18.563 14.938C18.8557 15.2307 19.0013 15.5847 19 16V20.25C19 20.6667 18.8543 21.021 18.563 21.313C18.2717 21.605 17.9173 21.7507 17.5 21.75C17.0827 21.7493 16.7287 21.6037 16.438 21.313C16.1473 21.0223 16.0013 20.668 16 20.25ZM21 20.025V12C21 11.5833 21.146 11.2293 21.438 10.938C21.73 10.6467 22.084 10.5007 22.5 10.5C22.916 10.4993 23.2703 10.6453 23.563 10.938C23.8557 11.2307 24.0013 11.5847 24 12V20.025C24 20.525 23.846 20.9 23.538 21.15C23.23 21.4 22.884 21.525 22.5 21.525C22.116 21.525 21.7703 21.4 21.463 21.15C21.1557 20.9 21.0013 20.525 21 20.025ZM11 23.475V20C11 19.5833 11.146 19.2293 11.438 18.938C11.73 18.6467 12.084 18.5007 12.5 18.5C12.916 18.4993 13.2703 18.6453 13.563 18.938C13.8557 19.2307 14.0013 19.5847 14 20V23.475C14 23.975 13.846 24.35 13.538 24.6C13.23 24.85 12.884 24.975 12.5 24.975C12.116 24.975 11.7703 24.85 11.463 24.6C11.1557 24.35 11.0013 23.975 11 23.475ZM13.4 29.55C12.9667 29.55 12.6623 29.346 12.487 28.938C12.3117 28.53 12.3827 28.1673 12.7 27.85L16.8 23.75C16.9833 23.5667 17.2043 23.4667 17.463 23.45C17.7217 23.4333 17.9507 23.5167 18.15 23.7L21 26.15L26.6 20.55H26C25.7167 20.55 25.4793 20.454 25.288 20.262C25.0967 20.07 25.0007 19.8327 25 19.55C24.9993 19.2673 25.0953 19.03 25.288 18.838C25.4807 18.646 25.718 18.55 26 18.55H29C29.2833 18.55 29.521 18.646 29.713 18.838C29.905 19.03 30.0007 19.2673 30 19.55V22.55C30 22.8333 29.904 23.071 29.712 23.263C29.52 23.455 29.2827 23.5507 29 23.55C28.7173 23.5493 28.48 23.4533 28.288 23.262C28.096 23.0707 28 22.8333 28 22.55V21.95L21.75 28.2C21.5667 28.3833 21.3457 28.4833 21.087 28.5C20.8283 28.5167 20.5993 28.4333 20.4 28.25L17.55 25.8L14.1 29.25C14.0167 29.3333 13.9127 29.4043 13.788 29.463C13.6633 29.5217 13.534 29.5507 13.4 29.55Z" fill="#D45B03"/>
</svg>
